<?xml version="1.0" standalone="no"?>
<!DOCTYPE svg PUBLIC "-//W3C//DTD SVG 20010904//EN"
 "http://www.w3.org/TR/2001/REC-SVG-20010904/DTD/svg10.dtd">
<svg version="1.0" xmlns="http://www.w3.org/2000/svg"
 width="300.000000pt" height="300.000000pt" viewBox="0 0 300.000000 300.000000"
 preserveAspectRatio="xMidYMid meet">
<metadata>
Created by potrace 1.14, written by Peter Selinger 2001-2017
</metadata>
<g transform="translate(0.000000,300.000000) scale(0.100000,-0.100000)"
fill="#000000" stroke="none">
<path d="M1310 2250 c-19 -19 -24 -36 -20 -73 1 -11 -11 -22 -33 -32 -39 -16
-46 -29 -37 -65 5 -22 -1 -30 -46 -60 -88 -59 -124 -92 -179 -165 -137 -181
-185 -384 -140 -599 58 -278 252 -393 615 -363 25 2 25 1 26 -78 1 -44 3 -138
5 -209 2 -90 0 -131 -8 -133 -6 -2 -14 1 -18 6 -11 19 -98 12 -145 -11 -91
-46 -121 -168 -57 -232 26 -26 26 -26 11 -78 -9 -29 -27 -75 -40 -101 -13 -27
-24 -51 -24 -53 0 -2 142 -4 315 -4 173 0 315 3 315 8 -1 4 -7 33 -15 66 -19
82 6 135 58 122 25 -6 77 -94 77 -131 1 -61 7 -66 84 -63 69 3 71 4 70 28 -3
54 -16 96 -52 169 -35 70 -37 78 -25 103 32 65 19 165 -26 209 -24 23 -87 42
-113 34 -34 -10 -86 -34 -92 -43 -5 -8 -115 -7 -122 1 -14 13 -22 110 -28 299
l-3 128 55 25 c205 94 320 254 325 452 6 200 -96 447 -240 585 -56 54 -148
105 -212 119 -32 7 -64 20 -74 32 -10 12 -32 21 -50 22 -27 1 -32 6 -38 36
-13 62 -78 90 -119 49z"/>
</g>
</svg>
